# Blender 3.3.0
# www.blender.org
mtllib hexagon_model.mtl
o Cylinder
v -0.000000 -0.250000 -0.965359
v -0.025981 -0.220000 -0.985000
v 0.025981 -0.220000 -0.985000
v 0.000000 0.250000 -0.965359
v 0.025981 0.220000 -0.985000
v -0.025981 0.220000 -0.985000
v 0.836025 -0.250000 -0.482679
v 0.840045 -0.220000 -0.515000
v 0.866025 -0.220000 -0.470000
v 0.836025 0.250000 -0.482679
v 0.866025 0.220000 -0.470000
v 0.840045 0.220000 -0.515000
v 0.836025 -0.250000 0.482679
v 0.866025 -0.220000 0.470000
v 0.840045 -0.220000 0.515000
v 0.836025 0.250000 0.482679
v 0.840045 0.220000 0.515000
v 0.866025 0.220000 0.470000
v 0.000000 -0.250000 0.965359
v 0.025981 -0.220000 0.985000
v -0.025981 -0.220000 0.985000
v -0.000000 0.250000 0.965359
v -0.025981 0.220000 0.985000
v 0.025981 0.220000 0.985000
v -0.836025 -0.250000 0.482679
v -0.840045 -0.220000 0.515000
v -0.866025 -0.220000 0.470000
v -0.836025 0.250000 0.482679
v -0.866025 0.220000 0.470000
v -0.840045 0.220000 0.515000
v -0.836025 -0.250000 -0.482679
v -0.866025 -0.220000 -0.470000
v -0.840045 -0.220000 -0.515000
v -0.836025 0.250000 -0.482679
v -0.840045 0.220000 -0.515000
v -0.866025 0.220000 -0.470000
vn -0.5000 -0.0000 -0.8660
vn 0.5000 -0.0000 0.8660
vn -0.5000 -0.0000 0.8660
vn -1.0000 -0.0000 -0.0000
vn 1.0000 -0.0000 -0.0000
vn -0.0000 1.0000 -0.0000
vn 0.5000 -0.0000 -0.8660
vn -0.0000 -0.5477 -0.8366
vn -0.0000 0.5477 -0.8366
vn 0.7246 -0.5478 -0.4183
vn 0.7246 0.5478 -0.4183
vn 0.7246 -0.5478 0.4183
vn 0.7246 0.5478 0.4183
vn -0.0000 -0.5477 0.8366
vn -0.0000 0.5477 0.8366
vn -0.7246 -0.5478 0.4183
vn -0.7246 0.5478 0.4183
vn -0.7246 -0.5478 -0.4183
vn -0.7246 0.5478 -0.4183
vn 0.3536 -0.7071 -0.6124
vn 0.3536 0.7071 -0.6124
vn -0.0000 -0.0000 -1.0000
vn 0.8660 -0.0000 -0.5000
vn 0.7071 -0.7071 -0.0000
vn 0.7071 0.7071 -0.0000
vn 0.8660 -0.0000 0.5000
vn 0.3536 -0.7071 0.6124
vn 0.3536 0.7071 0.6124
vn -0.0000 -0.0000 1.0000
vn -0.3536 -0.7071 0.6124
vn -0.3536 0.7071 0.6124
vn -0.8660 -0.0000 0.5000
vn -0.7071 -0.7071 -0.0000
vn -0.7071 0.7071 -0.0000
vn -0.8660 -0.0000 -0.5000
vn -0.3536 -0.7071 -0.6124
vn -0.3536 0.7071 -0.6124
vn -0.0000 -1.0000 -0.0000
vt 0.750000 0.481686
vt 0.005000 0.530000
vt 0.743765 0.486400
vt 0.995000 0.530000
vt 0.756235 0.486400
vt -0.000000 0.530000
vt 0.250000 0.481686
vt 0.995000 0.970000
vt 0.256235 0.486400
vt -0.000000 0.970000
vt 0.005000 0.970000
vt 0.243765 0.486400
vt 0.950646 0.365843
vt 0.951611 0.373600
vt 0.838333 0.530000
vt 0.828333 0.530000
vt 0.957846 0.362800
vt 0.450646 0.365843
vt 0.828333 0.970000
vt 0.457846 0.362800
vt 0.451611 0.373600
vt 0.838333 0.970000
vt 0.950646 0.134157
vt 0.957846 0.137200
vt 0.671667 0.530000
vt 0.661667 0.530000
vt 0.951611 0.126400
vt 0.450646 0.134157
vt 0.661667 0.970000
vt 0.451611 0.126400
vt 0.457846 0.137200
vt 0.671667 0.970000
vt 0.750000 0.018314
vt 0.756235 0.013600
vt 0.505000 0.530000
vt 0.495000 0.530000
vt 0.743765 0.013600
vt 0.250000 0.018314
vt 0.495000 0.970000
vt 0.243765 0.013600
vt 0.256235 0.013600
vt 0.505000 0.970000
vt 0.549354 0.134157
vt 0.548389 0.126400
vt 0.338333 0.530000
vt 0.328333 0.530000
vt 0.542154 0.137200
vt 0.049354 0.134157
vt 0.328333 0.970000
vt 0.042154 0.137200
vt 0.048389 0.126400
vt 0.338333 0.970000
vt 0.549354 0.365843
vt 0.542154 0.362800
vt 0.171667 0.530000
vt 0.161667 0.530000
vt 0.548389 0.373600
vt 0.049354 0.365843
vt 0.161667 0.970000
vt 0.048389 0.373600
vt 0.042154 0.362800
vt 0.171667 0.970000
s 0
f 33/56/1 35/59/1 6/11/1 2/2/1
f 15/26/2 17/29/2 24/42/2 20/35/2
f 21/36/3 23/39/3 30/52/3 26/45/3
f 27/46/4 29/49/4 36/62/4 32/55/4
f 9/16/5 11/19/5 18/32/5 14/25/5
f 10/18/6 4/7/6 34/58/6 28/48/6 22/38/6 16/28/6
f 3/4/7 5/8/7 12/22/7 8/15/7
f 1/1/8 2/3/8 3/5/8
f 4/7/9 5/9/9 6/12/9
f 7/13/10 8/14/10 9/17/10
f 10/18/11 11/20/11 12/21/11
f 13/23/12 14/24/12 15/27/12
f 16/28/13 17/30/13 18/31/13
f 19/33/14 20/34/14 21/37/14
f 22/38/15 23/40/15 24/41/15
f 25/43/16 26/44/16 27/47/16
f 28/48/17 29/50/17 30/51/17
f 31/53/18 32/54/18 33/57/18
f 34/58/19 35/60/19 36/61/19
f 3/5/20 8/14/20 7/13/20 1/1/20
f 12/21/21 5/9/21 4/7/21 10/18/21
f 2/2/22 6/11/22 5/10/22 3/6/22
f 11/19/23 9/16/23 8/15/23 12/22/23
f 9/17/24 14/24/24 13/23/24 7/13/24
f 18/31/25 11/20/25 10/18/25 16/28/25
f 17/29/26 15/26/26 14/25/26 18/32/26
f 15/27/27 20/34/27 19/33/27 13/23/27
f 24/41/28 17/30/28 16/28/28 22/38/28
f 23/39/29 21/36/29 20/35/29 24/42/29
f 21/37/30 26/44/30 25/43/30 19/33/30
f 30/51/31 23/40/31 22/38/31 28/48/31
f 29/49/32 27/46/32 26/45/32 30/52/32
f 27/47/33 32/54/33 31/53/33 25/43/33
f 36/61/34 29/50/34 28/48/34 34/58/34
f 35/59/35 33/56/35 32/55/35 36/62/35
f 33/57/36 2/3/36 1/1/36 31/53/36
f 6/12/37 35/60/37 34/58/37 4/7/37
f 1/1/38 7/13/38 13/23/38 19/33/38 25/43/38 31/53/38
